PathFileType	4	(X/Y/Z)	 s11c0101.trc
DataRate	CameraRate	NumFrames	NumMarkers	Units	OrigDataRate	OrigDataStartFrame	OrigNumFrames
200	200	4	48	mm	200	1251	2000
Frame#	Time	racr			lacr			c7			jug			rlel			rdr			llel			ldr			s2			lic			ric			lasi			rasi			rpsi			lpsi			rgt			lgt			rth1			rth2			rth3			rth4			rlfc			rmfc			rsh1			rsh2			rsh3			rsh4			rlmal			rcal			rtoe			rmt5			lth1			lth2			lth4			lth3			llfc			lmfc			llmal			lcal			lmt5			lsh1			lsh2			lsh3			lsh4			ltoe			SBIKE			LBIKE			RBIKE			
		X1	Y1	Z1	X2	Y2	Z2	X3	Y3	Z3	X4	Y4	Z4	X5	Y5	Z5	X6	Y6	Z6	X7	Y7	Z7	X8	Y8	Z8	X9	Y9	Z9	X10	Y10	Z10	X11	Y11	Z11	X12	Y12	Z12	X13	Y13	Z13	X14	Y14	Z14	X15	Y15	Z15	X16	Y16	Z16	X17	Y17	Z17	X18	Y18	Z18	X19	Y19	Z19	X20	Y20	Z20	X21	Y21	Z21	X22	Y22	Z22	X23	Y23	Z23	X24	Y24	Z24	X25	Y25	Z25	X26	Y26	Z26	X27	Y27	Z27	X28	Y28	Z28	X29	Y29	Z29	X30	Y30	Z30	X31	Y31	Z31	X32	Y32	Z32	X33	Y33	Z33	X34	Y34	Z34	X35	Y35	Z35	X36	Y36	Z36	X37	Y37	Z37	X38	Y38	Z38	X39	Y39	Z39	X40	Y40	Z40	X41	Y41	Z41	X42	Y42	Z42	X43	Y43	Z43	X44	Y44	Z44	X45	Y45	Z45	X46	Y46	Z46	X47	Y47	Z47	X48	Y48	Z48	
1251	6.2550	548.518995	1348.075818	-73.917821	535.092435	1348.673281	-406.679150	498.805789	1441.401099	-236.279872	478.847493	1256.445034	-247.464387	564.993128	1096.566179	61.631490	779.187450	934.659781	-29.159695	504.888361	1064.428251	-542.230144	786.643928	934.692235	-450.202740	-81.619693	1225.712606	-241.234251	135.174617	1258.259506	-449.074719	135.169644	1212.910833	-41.881314	161.659861	1192.817652	-400.468976	161.692937	1151.601758	-75.059332	-35.539893	1296.113159	-179.656646	-41.536497	1296.512800	-278.239841	55.407253	1056.887196	-35.133599	67.019360	1145.730414	-464.959229	118.185307	931.665451	-24.019746	177.844221	865.284550	-33.145883	194.922406	781.791595	-52.951617	210.645133	882.291609	-38.969237	246.962649	690.525239	-76.008002	247.467695	673.967118	-199.988725	205.367367	542.319892	-59.353113	204.118163	455.638266	-78.089803	161.234490	379.580114	-79.980370	228.267187	452.551839	-109.205648	120.387813	244.132138	-94.139282	58.038732	231.196316	-142.810874	338.320668	173.332230	-133.620881	266.009742	149.713259	-65.331350	205.935528	1097.455792	-472.311750	291.321061	1093.581117	-465.971344	303.048022	1126.411797	-451.571292	366.920151	1044.904325	-468.754484	484.754685	991.515146	-447.793291	501.994091	981.180654	-310.789717	230.437779	652.133659	-408.233705	165.188978	642.385855	-373.477866	310.427758	493.499612	-436.768624	419.775928	897.061921	-456.819377	390.955429	817.246933	-439.878536	324.840430	759.043835	-432.638528	418.585972	802.459846	-417.690237	401.684427	460.425509	-370.292314	-204.686757	961.542274	-262.635711	1.455848	82.640045	-461.164481	-15.205095	81.256546	-62.626330	
1252	6.2600	549.178356	1346.572678	-76.439720	534.940997	1349.096775	-407.190171	499.785076	1440.146643	-237.597397	479.107557	1255.335013	-249.823889	564.791379	1096.106178	60.757926	779.181914	934.552195	-29.051009	505.203285	1065.332437	-543.321915	786.731744	934.897952	-450.522994	-81.821668	1227.812842	-239.587931	134.019097	1260.308133	-448.169856	136.842831	1213.480647	-42.007580	160.425200	1194.804906	-400.185233	162.611746	1152.603395	-75.258380	-34.870007	1297.912045	-177.846630	-41.831925	1299.051823	-276.705968	54.863366	1058.479514	-34.182544	65.635048	1148.908966	-464.643167	117.531271	933.417594	-23.094704	177.497174	867.333723	-31.863935	195.263134	784.012885	-52.358078	210.265135	884.525458	-36.986305	247.635617	692.816907	-74.663108	251.187798	676.907533	-199.799399	204.216392	544.940984	-58.878300	201.194523	458.467973	-77.763322	156.821458	383.205348	-79.806639	225.405697	454.887101	-108.808754	112.914998	248.905197	-94.266733	50.837263	237.910422	-143.110934	329.291270	171.651984	-133.973401	256.345729	150.285902	-65.669095	204.886001	1100.444252	-471.629654	290.193693	1096.412072	-464.921453	301.891392	1129.107573	-450.330121	365.817366	1047.509244	-466.959201	483.553542	994.949115	-446.497325	501.238063	985.007519	-309.381733	236.325792	649.208847	-407.970611	171.024751	637.839970	-373.211575	320.340753	493.114700	-436.544844	420.902068	898.420694	-455.604611	393.893584	817.835753	-439.179072	329.078562	758.162184	-432.185079	421.688907	803.761468	-416.620986	412.440183	462.721735	-369.827870	-204.716261	961.569207	-262.580180	1.456258	82.691937	-461.122482	-15.217866	81.293986	-62.627693	
1253	6.2650	549.647180	1344.913384	-78.943962	534.863458	1349.193287	-407.584195	500.756169	1438.441850	-238.683403	479.423969	1253.787892	-252.116611	564.325910	1095.337660	60.148829	779.000604	934.466457	-28.910421	505.940324	1066.112663	-544.476987	786.670454	935.080769	-450.796420	-82.007104	1230.033197	-238.104554	132.602553	1262.430918	-447.201917	138.361666	1213.873602	-41.980123	158.943106	1196.414967	-399.862162	163.398110	1153.547974	-75.495325	-34.589418	1300.117877	-175.810651	-41.878672	1301.446815	-275.608620	54.402740	1060.100342	-33.268024	64.009543	1151.763360	-464.186852	117.276516	935.266973	-22.326379	177.937274	869.687135	-30.853553	196.612022	786.722963	-51.765347	210.604517	887.254881	-35.313954	249.440721	695.815636	-73.199904	256.162745	679.980168	-198.162084	203.782545	547.840789	-58.332013	199.042116	461.769594	-77.381949	153.066180	387.457984	-79.796715	223.166817	457.810456	-108.484798	106.523431	254.322375	-94.597130	44.167338	245.550019	-143.514698	320.495900	170.374955	-134.333973	246.791361	151.419657	-65.997542	203.556077	1102.914715	-470.877800	288.845625	1098.549716	-463.786221	300.571626	1131.176513	-449.194547	364.251222	1049.433065	-465.353078	482.157740	997.492159	-444.928882	499.932054	987.899190	-307.840173	241.792482	645.330282	-407.844439	176.106131	632.143904	-373.260874	330.028934	492.073703	-436.367019	421.619079	898.680122	-454.283125	396.377091	817.397124	-438.329183	332.867207	756.137129	-431.720074	424.311396	803.960910	-415.499457	422.915938	464.642194	-369.434292	-204.737758	961.605698	-262.530163	1.441773	82.716609	-461.148531	-15.233087	81.328738	-62.638250	
1254	6.2700	549.985816	1342.747274	-81.420841	534.821998	1348.918201	-407.862041	501.778938	1436.540885	-239.766775	479.432740	1252.090412	-254.309178	563.640695	1094.359991	60.004767	778.694931	934.396544	-28.658518	506.504692	1066.531081	-545.591400	786.482947	935.193456	-451.056306	-82.592645	1232.436176	-236.941997	131.213475	1264.722315	-446.655842	140.961870	1214.947609	-40.690096	157.322794	1198.025272	-399.729817	163.962295	1154.550806	-75.510225	-34.255848	1301.998915	-174.072463	-42.442298	1303.982142	-274.084453	53.957192	1061.790380	-32.415558	62.055425	1154.259294	-463.558608	117.535944	937.223399	-21.715053	179.130235	872.491356	-30.105469	199.027208	789.868555	-51.483203	211.625806	890.285439	-33.933496	252.357938	699.195790	-71.761974	260.736697	684.202240	-197.803060	204.202880	551.619304	-57.678294	197.499968	465.616609	-77.107653	149.974440	392.292166	-79.716342	221.587817	461.146671	-108.142490	100.570210	260.615294	-94.903311	38.132716	253.769308	-143.919188	311.680057	169.407000	-134.749748	237.485244	153.198319	-66.373787	201.922669	1104.919362	-470.179276	287.135165	1100.126465	-462.691274	298.986015	1132.662230	-448.004525	362.367128	1050.583871	-464.055270	480.448841	999.151307	-443.286008	498.107525	989.942190	-306.300817	246.807255	640.534590	-407.755007	180.829953	625.241975	-373.319535	339.440431	490.385798	-436.091928	421.887877	897.684629	-452.965413	398.322395	815.746246	-437.438019	336.086807	753.332626	-431.150959	426.372610	802.969222	-414.422393	433.132831	466.104978	-369.079342	-204.778561	961.627585	-262.442973	1.444389	82.762591	-461.167559	-15.224608	81.360971	-62.641846	
